<?xml version="1.0" encoding="utf-8" standalone="no"?>
<!DOCTYPE svg PUBLIC "-//W3C//DTD SVG 1.1//EN"
  "http://www.w3.org/Graphics/SVG/1.1/DTD/svg11.dtd">
<svg xmlns:xlink="http://www.w3.org/1999/xlink" width="576pt" height="432pt" viewBox="0 0 576 432" xmlns="http://www.w3.org/2000/svg" version="1.1">
 <metadata>
  <rdf:RDF xmlns:dc="http://purl.org/dc/elements/1.1/" xmlns:cc="http://creativecommons.org/ns#" xmlns:rdf="http://www.w3.org/1999/02/22-rdf-syntax-ns#">
   <cc:Work>
    <dc:type rdf:resource="http://purl.org/dc/dcmitype/StillImage"/>
    <dc:format>image/svg+xml</dc:format>
    <dc:creator>
     <cc:Agent>
      <dc:title>ThinWallX v0.8</dc:title>
     </cc:Agent>
    </dc:creator>
   </cc:Work>
  </rdf:RDF>
 </metadata>
 <defs>
  <style type="text/css">*{stroke-linejoin: round; stroke-linecap: butt}</style>
 </defs>
 <g id="figure_1">
  <g id="patch_1">
   <path d="M 0 432 
L 576 432 
L 576 0 
L 0 0 
z
" style="fill: #ffffff"/>
  </g>
  <g id="axes_1">
   <g id="patch_2">
    <path d="M 158.7474 354.24 
L 457.5726 354.24 
L 457.5726 56.16 
L 158.7474 56.16 
z
" style="fill: #ffffff"/>
   </g>
   <g id="patch_3">
    <path d="M 187.665968 265.296774 
L 187.665968 145.103226 
L 188.266935 145.103226 
L 188.266935 265.296774 
z
" clip-path="url(#pb70f677c4a)" style="fill: #cccccc; opacity: 0.6"/>
   </g>
   <g id="patch_4">
    <path d="M 187.966452 264.99629 
L 428.353548 264.99629 
L 428.353548 265.597258 
L 187.966452 265.597258 
z
" clip-path="url(#pb70f677c4a)" style="fill: #cccccc; opacity: 0.6"/>
   </g>
   <g id="patch_5">
    <path d="M 187.966452 144.802742 
L 428.353548 144.802742 
L 428.353548 145.40371 
L 187.966452 145.40371 
z
" clip-path="url(#pb70f677c4a)" style="fill: #cccccc; opacity: 0.6"/>
   </g>
   <g id="patch_6">
    <path d="M 428.053065 265.296774 
L 428.053065 145.103226 
L 428.654032 145.103226 
L 428.654032 265.296774 
z
" clip-path="url(#pb70f677c4a)" style="fill: #cccccc; opacity: 0.6"/>
   </g>
   <g id="line2d_1">
    <path d="M 187.966452 265.296774 
L 187.966452 145.103226 
" clip-path="url(#pb70f677c4a)" style="fill: none; stroke: #444444; stroke-width: 1.2; stroke-linecap: square"/>
   </g>
   <g id="line2d_2">
    <path d="M 187.966452 265.296774 
L 428.353548 265.296774 
" clip-path="url(#pb70f677c4a)" style="fill: none; stroke: #444444; stroke-width: 1.2; stroke-linecap: square"/>
   </g>
   <g id="line2d_3">
    <path d="M 187.966452 145.103226 
L 428.353548 145.103226 
" clip-path="url(#pb70f677c4a)" style="fill: none; stroke: #444444; stroke-width: 1.2; stroke-linecap: square"/>
   </g>
   <g id="line2d_4">
    <path d="M 428.353548 265.296774 
L 428.353548 145.103226 
" clip-path="url(#pb70f677c4a)" style="fill: none; stroke: #444444; stroke-width: 1.2; stroke-linecap: square"/>
   </g>
   <g id="matplotlib.axis_1">
    <g id="xtick_1">
     <g id="line2d_5">
      <defs>
       <path id="me3e88069df" d="M 0 0 
L 0 3.5 
" style="stroke: #000000; stroke-width: 0.8"/>
      </defs>
      <g>
       <use xlink:href="#me3e88069df" x="187.966452" y="354.24" style="stroke: #000000; stroke-width: 0.8"/>
      </g>
     </g>
     <g id="text_1">
      <text style="font-size: 9px; font-family: 'DejaVu Sans'; text-anchor: middle" x="187.966452" y="368.077891" transform="rotate(-0 187.966452 368.077891)">0.0</text>
     </g>
    </g>
    <g id="xtick_2">
     <g id="line2d_6">
      <g>
       <use xlink:href="#me3e88069df" x="236.043871" y="354.24" style="stroke: #000000; stroke-width: 0.8"/>
      </g>
     </g>
     <g id="text_2">
      <text style="font-size: 9px; font-family: 'DejaVu Sans'; text-anchor: middle" x="236.043871" y="368.077891" transform="rotate(-0 236.043871 368.077891)">0.1</text>
     </g>
    </g>
    <g id="xtick_3">
     <g id="line2d_7">
      <g>
       <use xlink:href="#me3e88069df" x="284.12129" y="354.24" style="stroke: #000000; stroke-width: 0.8"/>
      </g>
     </g>
     <g id="text_3">
      <text style="font-size: 9px; font-family: 'DejaVu Sans'; text-anchor: middle" x="284.12129" y="368.077891" transform="rotate(-0 284.12129 368.077891)">0.2</text>
     </g>
    </g>
    <g id="xtick_4">
     <g id="line2d_8">
      <g>
       <use xlink:href="#me3e88069df" x="332.19871" y="354.24" style="stroke: #000000; stroke-width: 0.8"/>
      </g>
     </g>
     <g id="text_4">
      <text style="font-size: 9px; font-family: 'DejaVu Sans'; text-anchor: middle" x="332.19871" y="368.077891" transform="rotate(-0 332.19871 368.077891)">0.3</text>
     </g>
    </g>
    <g id="xtick_5">
     <g id="line2d_9">
      <g>
       <use xlink:href="#me3e88069df" x="380.276129" y="354.24" style="stroke: #000000; stroke-width: 0.8"/>
      </g>
     </g>
     <g id="text_5">
      <text style="font-size: 9px; font-family: 'DejaVu Sans'; text-anchor: middle" x="380.276129" y="368.077891" transform="rotate(-0 380.276129 368.077891)">0.4</text>
     </g>
    </g>
    <g id="xtick_6">
     <g id="line2d_10">
      <g>
       <use xlink:href="#me3e88069df" x="428.353548" y="354.24" style="stroke: #000000; stroke-width: 0.8"/>
      </g>
     </g>
     <g id="text_6">
      <text style="font-size: 9px; font-family: 'DejaVu Sans'; text-anchor: middle" x="428.353548" y="368.077891" transform="rotate(-0 428.353548 368.077891)">0.5</text>
     </g>
    </g>
    <g id="text_7">
     <text style="font-size: 9px; font-family: 'DejaVu Sans'; text-anchor: middle" x="308.16" y="381.078594" transform="rotate(-0 308.16 381.078594)">(x - 0) / 2^3 [mm]</text>
    </g>
   </g>
   <g id="matplotlib.axis_2">
    <g id="ytick_1">
     <g id="line2d_11">
      <defs>
       <path id="mc371aa5b7e" d="M 0 0 
L -3.5 0 
" style="stroke: #000000; stroke-width: 0.8"/>
      </defs>
      <g>
       <use xlink:href="#mc371aa5b7e" x="158.7474" y="313.374194" style="stroke: #000000; stroke-width: 0.8"/>
      </g>
     </g>
     <g id="text_8">
      <text style="font-size: 9px; font-family: 'DejaVu Sans'; text-anchor: end" x="151.7474" y="316.793139" transform="rotate(-0 151.7474 316.793139)">−0.1</text>
     </g>
    </g>
    <g id="ytick_2">
     <g id="line2d_12">
      <g>
       <use xlink:href="#mc371aa5b7e" x="158.7474" y="265.296774" style="stroke: #000000; stroke-width: 0.8"/>
      </g>
     </g>
     <g id="text_9">
      <text style="font-size: 9px; font-family: 'DejaVu Sans'; text-anchor: end" x="151.7474" y="268.71572" transform="rotate(-0 151.7474 268.71572)">0.0</text>
     </g>
    </g>
    <g id="ytick_3">
     <g id="line2d_13">
      <g>
       <use xlink:href="#mc371aa5b7e" x="158.7474" y="217.219355" style="stroke: #000000; stroke-width: 0.8"/>
      </g>
     </g>
     <g id="text_10">
      <text style="font-size: 9px; font-family: 'DejaVu Sans'; text-anchor: end" x="151.7474" y="220.6383" transform="rotate(-0 151.7474 220.6383)">0.1</text>
     </g>
    </g>
    <g id="ytick_4">
     <g id="line2d_14">
      <g>
       <use xlink:href="#mc371aa5b7e" x="158.7474" y="169.141935" style="stroke: #000000; stroke-width: 0.8"/>
      </g>
     </g>
     <g id="text_11">
      <text style="font-size: 9px; font-family: 'DejaVu Sans'; text-anchor: end" x="151.7474" y="172.560881" transform="rotate(-0 151.7474 172.560881)">0.2</text>
     </g>
    </g>
    <g id="ytick_5">
     <g id="line2d_15">
      <g>
       <use xlink:href="#mc371aa5b7e" x="158.7474" y="121.064516" style="stroke: #000000; stroke-width: 0.8"/>
      </g>
     </g>
     <g id="text_12">
      <text style="font-size: 9px; font-family: 'DejaVu Sans'; text-anchor: end" x="151.7474" y="124.483461" transform="rotate(-0 151.7474 124.483461)">0.3</text>
     </g>
    </g>
    <g id="ytick_6">
     <g id="line2d_16">
      <g>
       <use xlink:href="#mc371aa5b7e" x="158.7474" y="72.987097" style="stroke: #000000; stroke-width: 0.8"/>
      </g>
     </g>
     <g id="text_13">
      <text style="font-size: 9px; font-family: 'DejaVu Sans'; text-anchor: end" x="151.7474" y="76.406042" transform="rotate(-0 151.7474 76.406042)">0.4</text>
     </g>
    </g>
    <g id="text_14">
     <text style="font-size: 9px; font-family: 'DejaVu Sans'; text-anchor: middle" x="123.730759" y="205.2" transform="rotate(-90 123.730759 205.2)">(y - 0) / 2^3 [mm]</text>
    </g>
   </g>
   <g id="line2d_17">
    <path d="M 308.16 325.393548 
L 308.16 85.006452 
" clip-path="url(#pb70f677c4a)" style="fill: none; stroke-dasharray: 4.44,1.92; stroke-dashoffset: 0; stroke: #0072b2; stroke-width: 1.2"/>
   </g>
   <g id="line2d_18">
    <path d="M 428.353548 205.2 
L 187.966452 205.2 
" clip-path="url(#pb70f677c4a)" style="fill: none; stroke-dasharray: 4.44,1.92; stroke-dashoffset: 0; stroke: #d55e00; stroke-width: 1.2"/>
   </g>
   <g id="patch_7">
    <path d="M 158.7474 354.24 
L 158.7474 56.16 
" style="fill: none; stroke: #000000; stroke-width: 0.8; stroke-linejoin: miter; stroke-linecap: square"/>
   </g>
   <g id="patch_8">
    <path d="M 457.5726 354.24 
L 457.5726 56.16 
" style="fill: none; stroke: #000000; stroke-width: 0.8; stroke-linejoin: miter; stroke-linecap: square"/>
   </g>
   <g id="patch_9">
    <path d="M 158.7474 354.24 
L 457.5726 354.24 
" style="fill: none; stroke: #000000; stroke-width: 0.8; stroke-linejoin: miter; stroke-linecap: square"/>
   </g>
   <g id="patch_10">
    <path d="M 158.7474 56.16 
L 457.5726 56.16 
" style="fill: none; stroke: #000000; stroke-width: 0.8; stroke-linejoin: miter; stroke-linecap: square"/>
   </g>
   <g id="text_15">
    <text style="font-size: 9px; font-family: 'DejaVu Sans'; text-anchor: start" x="187.966452" y="205.2" transform="rotate(-0 187.966452 205.2)">0: 'e0'</text>
   </g>
   <g id="text_16">
    <text style="font-size: 9px; font-family: 'DejaVu Sans'; text-anchor: start" x="308.16" y="265.296774" transform="rotate(-0 308.16 265.296774)">1: 'e1'</text>
   </g>
   <g id="text_17">
    <text style="font-size: 9px; font-family: 'DejaVu Sans'; text-anchor: start" x="308.16" y="145.103226" transform="rotate(-0 308.16 145.103226)">2: 'e2'</text>
   </g>
   <g id="text_18">
    <text style="font-size: 9px; font-family: 'DejaVu Sans'; text-anchor: start" x="428.353548" y="205.2" transform="rotate(-0 428.353548 205.2)">3: 'e3'</text>
   </g>
   <g id="text_19">
    <text style="font-size: 10.8px; font-family: 'DejaVu Sans'; text-anchor: middle" x="308.16" y="50.16" transform="rotate(-0 308.16 50.16)">Centerline model; junction overlaps neglected</text>
   </g>
   <g id="line2d_19">
    <defs>
     <path id="m23172ad8d2" d="M 0 3 
C 0.795609 3 1.55874 2.683901 2.12132 2.12132 
C 2.683901 1.55874 3 0.795609 3 0 
C 3 -0.795609 2.683901 -1.55874 2.12132 -2.12132 
C 1.55874 -2.683901 0.795609 -3 0 -3 
C -0.795609 -3 -1.55874 -2.683901 -2.12132 -2.12132 
C -2.683901 -1.55874 -3 -0.795609 -3 0 
C -3 0.795609 -2.683901 1.55874 -2.12132 2.12132 
C -1.55874 2.683901 -0.795609 3 0 3 
z
" style="stroke: #000000"/>
    </defs>
    <g clip-path="url(#pb70f677c4a)">
     <use xlink:href="#m23172ad8d2" x="308.16" y="205.2" style="stroke: #000000"/>
    </g>
   </g>
   <g id="legend_1">
    <g id="patch_11">
     <path d="M 414.09135 117.362813 
L 451.2726 117.362813 
Q 453.0726 117.362813 453.0726 115.562813 
L 453.0726 62.46 
Q 453.0726 60.66 451.2726 60.66 
L 414.09135 60.66 
Q 412.29135 60.66 412.29135 62.46 
L 412.29135 115.562813 
Q 412.29135 117.362813 414.09135 117.362813 
z
" style="fill: #ffffff; opacity: 0.8; stroke: #cccccc; stroke-linejoin: miter"/>
    </g>
    <g id="line2d_20">
     <g>
      <use xlink:href="#m23172ad8d2" x="424.89135" y="67.948594" style="stroke: #000000"/>
     </g>
    </g>
    <g id="text_20">
     <text style="font-size: 9px; font-family: 'DejaVu Sans'; text-anchor: start" x="441.09135" y="71.098594" transform="rotate(-0 441.09135 71.098594)">C</text>
    </g>
    <g id="line2d_21">
     <defs>
      <path id="mce8dbe9baf" d="M -3 3 
L 3 -3 
M -3 -3 
L 3 3 
" style="stroke: #800080"/>
     </defs>
     <g>
      <use xlink:href="#mce8dbe9baf" x="424.89135" y="81.449297" style="fill: #800080; stroke: #800080"/>
     </g>
    </g>
    <g id="text_21">
     <text style="font-size: 9px; font-family: 'DejaVu Sans'; text-anchor: start" x="441.09135" y="84.599297" transform="rotate(-0 441.09135 84.599297)">S</text>
    </g>
    <g id="line2d_22">
     <path d="M 415.89135 94.95 
L 424.89135 94.95 
L 433.89135 94.95 
" style="fill: none; stroke-dasharray: 4.44,1.92; stroke-dashoffset: 0; stroke: #0072b2; stroke-width: 1.2"/>
    </g>
    <g id="text_22">
     <text style="font-size: 9px; font-family: 'DejaVu Sans'; text-anchor: start" x="441.09135" y="98.1" transform="rotate(-0 441.09135 98.1)">I1</text>
    </g>
    <g id="line2d_23">
     <path d="M 415.89135 108.450703 
L 424.89135 108.450703 
L 433.89135 108.450703 
" style="fill: none; stroke-dasharray: 4.44,1.92; stroke-dashoffset: 0; stroke: #d55e00; stroke-width: 1.2"/>
    </g>
    <g id="text_23">
     <text style="font-size: 9px; font-family: 'DejaVu Sans'; text-anchor: start" x="441.09135" y="111.600703" transform="rotate(-0 441.09135 111.600703)">I2</text>
    </g>
   </g>
   <g id="line2d_24">
    <g clip-path="url(#pb70f677c4a)">
     <use xlink:href="#mce8dbe9baf" x="308.16" y="205.2" style="fill: #800080; stroke: #800080"/>
    </g>
   </g>
  </g>
 </g>
 <defs>
  <clipPath id="pb70f677c4a">
   <rect x="158.7474" y="56.16" width="298.8252" height="298.08"/>
  </clipPath>
 </defs>
</svg>
